<?xml version="1.0" standalone="no"?>
<!DOCTYPE svg PUBLIC "-//W3C//DTD SVG 20010904//EN"
 "http://www.w3.org/TR/2001/REC-SVG-20010904/DTD/svg10.dtd">
<svg version="1.0" xmlns="http://www.w3.org/2000/svg"
 width="300.000000pt" height="300.000000pt" viewBox="0 0 300.000000 300.000000"
 preserveAspectRatio="xMidYMid meet">
<metadata>
Created by potrace 1.10, written by Peter Selinger 2001-2011
</metadata>
<g transform="translate(0.000000,300.000000) scale(0.100000,-0.100000)"
fill="#000000" stroke="none">
<path d="M655 1721 c-88 -39 -143 -152 -115 -235 20 -61 45 -70 199 -76 135
-5 136 -5 139 -29 7 -45 -17 -51 -199 -51 l-167 0 -11 -47 c-7 -27 -14 -56
-17 -66 -6 -18 4 -19 193 -15 195 3 199 3 245 30 55 33 85 77 100 150 9 43 8
60 -4 89 -24 56 -63 69 -212 69 l-126 0 0 25 c0 14 8 29 19 35 11 5 84 10 165
10 l144 0 11 48 c5 26 13 55 16 65 7 16 -5 17 -166 17 -147 0 -180 -3 -214
-19z m332 -27 c3 -9 2 -24 -4 -33 -8 -13 -35 -17 -146 -21 -126 -5 -137 -7
-161 -29 -14 -14 -26 -34 -26 -47 0 -40 25 -49 162 -54 128 -5 130 -5 155 -34
22 -26 24 -35 18 -80 -8 -64 -44 -112 -101 -138 -37 -16 -65 -19 -189 -17
-116 1 -147 4 -152 15 -13 35 13 41 170 43 l152 1 26 29 c29 31 30 70 2 93
-10 8 -65 15 -145 19 -116 6 -131 8 -153 29 -43 40 -30 133 25 192 33 36 88
47 228 48 114 0 134 -2 139 -16z"/>
<path d="M1060 1683 c-7 -32 -14 -62 -16 -68 -3 -6 29 -9 86 -7 l91 3 -7 -28
c-4 -15 -11 -38 -15 -51 -5 -13 -9 -32 -9 -43 0 -18 2 -19 30 -4 37 19 55 19
85 -1 23 -15 24 -15 34 23 5 21 12 53 16 71 l7 32 87 0 87 0 32 65 32 65 -264
0 -263 0 -13 -57z m475 17 c4 -6 -1 -22 -9 -35 -15 -23 -23 -25 -86 -25 -76 0
-92 -9 -117 -67 -13 -33 -55 -59 -74 -47 -5 3 -9 23 -9 44 0 51 -26 70 -97 70
-49 0 -53 2 -53 23 0 13 5 28 12 35 16 16 424 17 433 2z"/>
<path d="M1587 1646 c-6 -14 5 -16 86 -16 51 0 112 -5 137 -11 56 -12 200 -69
200 -78 0 -8 -370 -5 -435 4 -32 4 -36 3 -22 -6 11 -6 149 -14 355 -20 214 -5
359 -13 397 -22 66 -15 135 -44 135 -58 0 -4 -15 0 -32 10 -18 10 -46 22 -61
25 -26 6 -27 5 -17 -13 11 -21 82 -46 105 -37 18 7 26 -31 12 -61 -8 -18 -8
-29 0 -43 10 -15 8 -19 -19 -24 -17 -3 -49 -6 -72 -6 l-42 0 4 38 c5 51 -31
102 -84 121 -37 13 -44 12 -80 -5 -28 -13 -45 -31 -59 -62 l-20 -43 -125 6
c-194 10 -451 12 -455 4 -8 -11 36 -19 105 -18 55 1 59 3 30 9 -67 14 4 10
189 -11 102 -12 190 -25 195 -30 6 -5 -103 -9 -268 -9 l-278 0 5 21 c10 37 -3
79 -25 79 -16 0 -17 -3 -8 -21 30 -55 -27 -125 -93 -116 -32 4 -38 2 -35 -11
7 -35 138 -17 138 18 0 6 121 10 326 10 l326 0 30 -25 c39 -33 96 -34 135 -1
21 17 46 25 101 30 41 3 83 11 94 17 18 10 19 12 3 29 -13 15 -14 22 -5 40 13
25 6 67 -17 92 -33 37 -227 88 -333 88 -20 0 -68 16 -109 35 -122 58 -187 76
-302 82 -92 5 -107 4 -112 -11z m669 -250 c58 -49 20 -146 -57 -146 -74 0
-109 97 -53 148 32 29 76 28 110 -2z"/>
<path d="M2151 1351 c-20 -13 40 -24 80 -16 40 9 20 25 -31 25 -19 0 -41 -4
-49 -9z"/>
<path d="M1070 1563 c-87 -5 -104 -23 -22 -23 70 0 73 -4 42 -64 -12 -24 -17
-49 -13 -67 6 -30 39 -67 50 -55 4 3 -3 13 -15 22 -27 19 -28 48 -2 102 11 22
20 45 20 51 0 5 9 13 20 16 25 8 27 26 3 23 -10 -1 -47 -3 -83 -5z"/>
<path d="M1366 1473 c-2 -10 -7 -28 -11 -40 -4 -14 -2 -23 4 -23 6 0 11 7 11
15 0 8 4 15 9 15 5 0 11 -7 15 -15 3 -8 10 -15 16 -15 6 0 8 5 5 10 -4 6 -1
17 5 25 7 8 10 22 6 30 -8 21 -53 19 -60 -2z"/>
<path d="M1440 1473 c0 -10 -3 -28 -6 -40 -6 -20 -3 -23 25 -23 36 0 42 16 9
23 l-23 4 23 2 c12 0 22 5 22 10 0 5 -10 12 -22 14 -20 4 -19 4 5 6 37 1 35
21 -3 21 -22 0 -30 -5 -30 -17z"/>
<path d="M1510 1473 c0 -10 -3 -28 -6 -40 -4 -14 -2 -23 5 -23 6 0 11 12 11
28 l1 27 15 -27 c17 -32 34 -37 34 -10 0 9 3 27 6 40 4 13 2 22 -5 22 -6 0
-11 -12 -11 -27 l-1 -28 -15 28 c-17 31 -34 36 -34 10z"/>
<path d="M1590 1480 c0 -5 4 -10 10 -10 5 0 7 -13 4 -30 -4 -19 -2 -30 5 -30
6 0 11 11 11 25 0 14 7 28 15 31 25 10 17 24 -15 24 -16 0 -30 -4 -30 -10z"/>
<path d="M1652 1453 c-26 -40 -24 -50 7 -31 18 11 23 11 31 -2 14 -22 20 -8
13 33 -7 46 -22 46 -51 0z"/>
<path d="M1726 1459 c-3 -17 -6 -35 -6 -40 0 -12 47 -11 55 1 3 6 -4 10 -16
10 -19 0 -21 4 -15 30 3 17 2 30 -3 30 -5 0 -11 -14 -15 -31z"/>
<path d="M1826 1474 c-10 -9 -16 -26 -14 -38 2 -17 10 -21 43 -22 22 0 48 5
58 10 13 8 20 7 27 -4 14 -23 22 -5 13 31 -11 42 -24 46 -44 11 -11 -20 -24
-28 -48 -29 -26 -2 -32 1 -29 15 3 12 12 16 32 15 17 -1 26 2 23 10 -6 19 -43
20 -61 1z"/>
<path d="M1976 1459 c-9 -47 -7 -56 9 -35 13 17 15 17 21 3 3 -10 13 -17 21
-17 12 0 13 3 4 13 -8 10 -7 17 1 25 17 17 2 42 -25 42 -19 0 -26 -7 -31 -31z"/>
<path d="M1154 1340 c-15 -63 -29 -121 -31 -127 -4 -10 14 -13 68 -13 l74 0
28 118 c15 64 27 120 27 124 0 3 -31 8 -70 10 l-69 3 -27 -115z m126 74 c0 -9
-10 -49 -21 -89 -16 -55 -27 -75 -42 -79 -41 -10 -42 -2 -21 124 9 57 12 60
49 60 25 0 35 -4 35 -16z"/>
<path d="M1334 1345 c-3 -20 -5 -37 -3 -39 2 -2 24 7 48 19 l45 23 -38 16
c-21 9 -40 16 -42 16 -2 0 -6 -16 -10 -35z"/>
<path d="M2383 1361 c-49 -8 -67 -21 -32 -22 13 0 36 -3 52 -5 22 -4 27 -1 27
16 0 11 -1 19 -2 19 -2 -1 -22 -5 -45 -8z"/>
</g>
</svg>
