<?xml version="1.0" encoding="UTF-8"?>
<svg version="1.1" xmlns="http://www.w3.org/2000/svg" width="232" height="217">
<path d="M0 0 C76.56 0 153.12 0 232 0 C232 71.61 232 143.22 232 217 C155.44 217 78.88 217 0 217 C0 145.39 0 73.78 0 0 Z " fill="#FDFDFE" transform="translate(0,0)"/>
<path d="M0 0 C2.52601056 0.91689819 3.85402464 2.13382818 5.78881836 3.99072266 C9.93354743 7.74751198 14.28668572 10.44415748 19.16772461 13.13916016 C20.84396723 14.08886712 22.51974274 15.03939898 24.19506836 15.99072266 C25.02119629 16.45639648 25.84732422 16.92207031 26.69848633 17.40185547 C59.91790046 36.20529743 59.91790046 36.20529743 65.10522461 53.76416016 C66.41636685 63.20668456 64.93822671 72.08743553 59.56225586 80.04931641 C54.95602981 85.68851763 49.33823117 90.24057784 42.10522461 91.76416016 C40.0494415 87.4107371 40.0494415 87.4107371 40.27709961 84.77197266 C41.40685596 82.03284641 42.87729252 81.36103079 45.41772461 79.88916016 C50.61240268 76.62700143 53.13854164 73.66420907 55.10522461 67.76416016 C55.76246351 59.88806778 55.79028096 53.32042521 51.10522461 46.76416016 C50.6656543 46.12220703 50.22608398 45.48025391 49.77319336 44.81884766 C42.44443601 35.35640145 30.83077805 30.06359793 20.41772461 24.70166016 C10.19959207 19.43519719 1.231158 14.00861428 -5.89477539 4.76416016 C-3.54400507 -0.44111698 -3.54400507 -0.44111698 0 0 Z " fill="#414142" transform="translate(88.894775390625,89.23583984375)"/>
<path d="M0 0 C7.46311754 4.86360469 13.39649216 11.56002694 15.6875 20.3125 C16.37402068 26.96914352 15.9746192 33.0229222 13.6875 39.3125 C8.9375 38.4375 8.9375 38.4375 6.6875 37.3125 C6.47810072 34.7727859 6.36861782 32.29344102 6.3125 29.75 C5.94010573 21.4307488 4.66422905 15.87132214 -1.5625 10 C-7.45506808 4.90963797 -14.65113631 3.77407377 -22.1875 3.875 C-23.37158447 3.88527222 -23.37158447 3.88527222 -24.57958984 3.89575195 C-34.30404059 4.16281926 -41.39036936 7.91305901 -49.3125 13.3125 C-50.9625 11.6625 -52.6125 10.0125 -54.3125 8.3125 C-52.79980801 3.77442402 -49.32303466 1.52658029 -45.3125 -0.6875 C-30.421504 -7.59511031 -14.58291099 -8.07229009 0 0 Z " fill="#434344" transform="translate(138.3125,47.6875)"/>
<path d="M0 0 C25.74 0 51.48 0 78 0 C78 2.64 78 5.28 78 8 C72.39 8 66.78 8 61 8 C61 13.28 61 18.56 61 24 C58.36 24 55.72 24 53 24 C53 18.72 53 13.44 53 8 C35.51 8 18.02 8 0 8 C0 5.36 0 2.72 0 0 Z " fill="#7A1314" transform="translate(58,71)"/>
<path d="M0 0 C2.64 0 5.28 0 8 0 C8 20.13 8 40.26 8 61 C5.36 61 2.72 61 0 61 C0 40.87 0 20.74 0 0 Z " fill="#790E10" transform="translate(111,132)"/>
<path d="M0 0 C3.37462715 0.54723683 5.08235 1.0549 8 3 C8.15234375 5.94140625 8.15234375 5.94140625 7.9375 9.5625 C7.84674011 15.90920932 7.95335557 20.90025293 12 26 C15.48116749 28.98028008 19.1300308 31.55124363 23 34 C22.34 36.31 21.68 38.62 21 41 C14.57487839 40.83525329 10.39711727 37.34992102 6 33 C-0.71611721 24.08795487 -3.06444519 15.09840641 -2 4 C-0.984375 1.63671875 -0.984375 1.63671875 0 0 Z " fill="#434344" transform="translate(78,139)"/>
<path d="M0 0 C26.07 0 52.14 0 79 0 C79 0.33 79 0.66 79 1 C53.26 1 27.52 1 1 1 C1 3.64 1 6.28 1 9 C18.49 9 35.98 9 54 9 C54 14.28 54 19.56 54 25 C56.31 25 58.62 25 61 25 C61 25.33 61 25.66 61 26 C58.03 26 55.06 26 52 26 C52 21.05 52 16.1 52 11 C34.51 11 17.02 11 -1 11 C-1 2 -1 2 0 0 Z " fill="#CABCBD" transform="translate(57,70)"/>
<path d="M0 0 C0.474375 0.66 0.94875 1.32 1.4375 2 C8.14849504 9.85677468 15.73307552 14.88752092 24.875 19.5625 C57.90243902 36.70731707 57.90243902 36.70731707 63 52 C63.1199261 54.16424777 63.17529542 56.33246644 63.1875 58.5 C63.20167969 59.6446875 63.21585937 60.789375 63.23046875 61.96875 C63 65 63 65 61 68 C61.04640625 67.23816406 61.0928125 66.47632813 61.140625 65.69140625 C61.39494676 58.41598723 60.72266996 53.27535794 57 47 C56.64550781 46.34644531 56.29101562 45.69289062 55.92578125 45.01953125 C48.86353792 33.85806782 33.91675936 27.64342801 22.49780273 22.01831055 C14.73302337 18.12440923 7.63092985 13.33585462 1.875 6.75 C1.29492188 6.10546875 0.71484375 5.4609375 0.1171875 4.796875 C-0.25148438 4.20390625 -0.62015625 3.6109375 -1 3 C-0.67 2.01 -0.34 1.02 0 0 Z " fill="#C9CBCD" transform="translate(82,92)"/>
<path d="M0 0 C0.90105469 0.62261719 0.90105469 0.62261719 1.8203125 1.2578125 C2.46226562 1.69351563 3.10421875 2.12921875 3.765625 2.578125 C8.21692972 5.98644618 11.47139614 9.74769357 12.8203125 15.2578125 C13.26006472 20.5862563 13.05335855 25.92364732 12.8203125 31.2578125 C15.1303125 31.9178125 17.4403125 32.5778125 19.8203125 33.2578125 C20.3153125 32.2678125 20.3153125 32.2678125 20.8203125 31.2578125 C20.8203125 32.2478125 20.8203125 33.2378125 20.8203125 34.2578125 C17.6699111 35.24793865 16.24083094 35.43574783 13.15234375 34.12890625 C10.8203125 32.2578125 10.8203125 32.2578125 10.4375 29.65625 C10.52257812 28.65851563 10.60765625 27.66078125 10.6953125 26.6328125 C10.98371956 19.61773483 9.75828617 14.53746024 6.1953125 8.5078125 C0.30560938 2.92809376 -6.32299578 0.11329685 -14.3828125 0.16015625 C-15.3625 0.16337891 -16.3421875 0.16660156 -17.3515625 0.16992188 C-18.36734375 0.17830078 -19.383125 0.18667969 -20.4296875 0.1953125 C-21.4609375 0.19982422 -22.4921875 0.20433594 -23.5546875 0.20898438 C-26.09641323 0.22075162 -28.63802069 0.23719239 -31.1796875 0.2578125 C-24.84191936 -6.07995564 -7.18353579 -4.02841419 0 0 Z " fill="#C6C8CA" transform="translate(132.1796875,53.7421875)"/>
<path d="M0 0 C4.62 0 9.24 0 14 0 C14 2.97 14 5.94 14 9 C9.38 9 4.76 9 0 9 C0 6.03 0 3.06 0 0 Z " fill="#812224" transform="translate(163,70)"/>
<path d="M0 0 C0.33 0 0.66 0 1 0 C1.02578125 0.73863281 1.0515625 1.47726563 1.078125 2.23828125 C1.63498944 12.1985611 3.69585271 22.65914845 11 30 C15.07795947 33.15712991 19.35965048 35.75874275 24 38 C21.10924287 38.85351001 19.56871674 39.24529 16.75390625 38.03125 C7.71782246 31.71726632 2.37439846 25.11252806 -0.75 14.4375 C-1.24538941 9.60745328 -1.55608846 4.66826537 0 0 Z " fill="#CDCED0" transform="translate(75,143)"/>
<path d="M0 0 C1.19882813 0.00483398 1.19882813 0.00483398 2.421875 0.00976562 C3.246875 0.01814453 4.071875 0.02652344 4.921875 0.03515625 C5.76234375 0.03966797 6.6028125 0.04417969 7.46875 0.04882812 C9.53648901 0.06057664 11.60419124 0.07851103 13.671875 0.09765625 C14.001875 1.08765625 14.331875 2.07765625 14.671875 3.09765625 C6.421875 3.09765625 -1.828125 3.09765625 -10.328125 3.09765625 C-7.24632667 0.01585792 -4.22346867 -0.03016763 0 0 Z " fill="#D4D6D7" transform="translate(111.328125,50.90234375)"/>
<path d="M0 0 C0.66 0 1.32 0 2 0 C2 2.31 2 4.62 2 7 C5.96 7 9.92 7 14 7 C14 7.66 14 8.32 14 9 C9.38 9 4.76 9 0 9 C0 6.03 0 3.06 0 0 Z " fill="#DADBDD" transform="translate(161,72)"/>
<path d="M0 0 C0.33 1.32 0.66 2.64 1 4 C3.31 4.66 5.62 5.32 8 6 C8.33 5.34 8.66 4.68 9 4 C9 4.99 9 5.98 9 7 C5.61608307 8.06351675 4.4195366 8.21442982 1.1875 6.5625 C0.465625 6.046875 -0.25625 5.53125 -1 5 C-0.67 3.35 -0.34 1.7 0 0 Z " fill="#C2C3C5" transform="translate(144,81)"/>
<path d="M0 0 C1.9451 2.91765 2.45276317 4.62537285 3 8 C4.32 7.67 5.64 7.34 7 7 C6.67 7.66 6.34 8.32 6 9 C4.35 9 2.7 9 1 9 C-1.125 2.25 -1.125 2.25 0 0 Z " fill="#CACCCD" transform="translate(128,173)"/>
<path d="M0 0 C4.95 1.98 4.95 1.98 10 4 C9.34 4.66 8.68 5.32 8 6 C4.55834679 5.64700993 2.93127462 4.95418308 0 3 C0 2.01 0 1.02 0 0 Z " fill="#C7C8CA" transform="translate(89,176)"/>
<path d="M0 0 C1.485 0.99 1.485 0.99 3 2 C3.29296875 4.8203125 3.29296875 4.8203125 3.1875 8.125 C3.16042969 9.22070312 3.13335937 10.31640625 3.10546875 11.4453125 C3.07066406 12.28835937 3.03585938 13.13140625 3 14 C2.67 14 2.34 14 2 14 C1.66179834 12.4176994 1.32964061 10.83410625 1 9.25 C0.814375 8.36828125 0.62875 7.4865625 0.4375 6.578125 C0 4 0 4 0 0 Z " fill="#CED1D3" transform="translate(142,67)"/>
<path d="M0 0 C0 3 0 3 -2 6 C-2.33 6.66 -2.66 7.32 -3 8 C-3.66 6.68 -4.32 5.36 -5 4 C-3.35 2.68 -1.7 1.36 0 0 Z " fill="#4A4A4B" transform="translate(89,50)"/>
<path d="M0 0 C2.04119788 1.61594832 4.04072937 3.2856382 6 5 C6 5.66 6 6.32 6 7 C3.53199953 5.84826645 1.95216435 4.95216435 0 3 C0 2.01 0 1.02 0 0 Z " fill="#CCCDCF" transform="translate(83,55)"/>
</svg>
