<?xml version="1.0" encoding="UTF-8"?>
<svg version="1.1" xmlns="http://www.w3.org/2000/svg" width="769" height="829">
<path d="M0 0 C253.77 0 507.54 0 769 0 C769 273.57 769 547.14 769 829 C515.23 829 261.46 829 0 829 C0 555.43 0 281.86 0 0 Z " fill="#FDFDFD" transform="translate(0,0)"/>
<path d="M0 0 C2.51209833 0.00565426 5.02418987 0.00846614 7.53629303 0.0110817 C32.03876238 0.04813404 56.35343022 0.56817351 80.7452774 3.07129288 C83.36214453 3.33230173 85.9803187 3.57155673 88.59970856 3.80585098 C128.21210542 7.35865654 168.75439682 12.93488421 206.96933746 24.31805801 C208.60993096 24.79733252 210.25055666 25.27649682 211.89121246 25.75555801 C212.7357901 26.00507217 213.58036774 26.25458633 214.45053864 26.51166153 C216.42628818 27.08708704 218.40612375 27.64855893 220.38852692 28.20062637 C229.67228061 30.79277892 238.79439198 33.74909164 247.90683746 36.88055801 C249.04410782 37.27064545 249.04410782 37.27064545 250.20435333 37.66861343 C284.57196184 49.49706563 318.49618285 63.99359807 349.65683746 82.81805801 C350.33166168 83.21516983 351.0064859 83.61228165 351.70175934 84.02142715 C353.52793121 85.16180801 353.52793121 85.16180801 356.21933746 87.31805801 C356.21933746 91.69919489 355.39996966 93.42414687 353.43808746 97.27118301 C353.14631622 97.8490657 352.85454498 98.42694839 352.55393219 99.02234268 C351.61653733 100.8748194 350.66826636 102.72146753 349.71933746 104.56805801 C349.11182098 105.76299171 348.50504372 106.95830154 347.89902496 108.15399551 C346.68749163 110.54289492 345.47191201 112.929615 344.25435638 115.31546402 C342.34265129 119.06861191 340.45390992 122.83304032 338.57309723 126.60174942 C337.86653546 128.01618398 337.15996146 129.43061244 336.45337677 130.84503555 C335.90428335 131.94454796 335.90428335 131.94454796 335.34409714 133.06627274 C333.45013768 136.85800721 331.55423259 140.64876862 329.65854645 144.43964005 C328.85282735 146.0510551 328.04711771 147.66247487 327.24141693 149.27389908 C313.56739044 176.62195206 299.89336395 203.97000504 286.21933746 231.31805801 C282.62088124 230.51353794 280.12882971 229.16662569 277.01621246 227.15790176 C276.03652496 226.5294838 275.05683746 225.90106583 274.04746246 225.25360489 C273.03168121 224.59424942 272.01589996 223.93489395 270.96933746 223.25555801 C269.93808746 222.59233536 268.90683746 221.9291127 267.84433746 221.24579239 C265.29945425 219.60811291 262.75798047 217.96538764 260.21933746 216.31805801 C264.19557391 210.0112972 268.21326758 203.7522025 272.46933746 197.63055801 C273.41992079 196.25560122 274.37043972 194.8805999 275.32089996 193.50555801 C275.79946442 192.81462051 276.27802887 192.12368301 276.77109528 191.41180801 C279.13749068 187.99066726 281.49012321 184.56008686 283.84433746 181.13055801 C287.18519963 176.26431806 290.53996152 171.40779663 293.90048981 166.55511856 C294.31667068 165.95406044 294.73285156 165.35300232 295.16164398 164.73373032 C296.18083147 163.26180931 297.20007844 161.78992949 298.21933746 160.31805801 C297.21825612 160.31566966 296.21717478 160.31328131 295.18575764 160.31082058 C270.74357385 160.25183173 246.3014871 160.17583057 221.85941029 160.0823431 C210.03904682 160.03751926 198.21871258 159.99807421 186.39829254 159.97162247 C176.08671272 159.9485332 165.77522644 159.91501478 155.46372098 159.86935645 C150.01195403 159.8455706 144.56027889 159.8267465 139.10846138 159.82044411 C133.95956183 159.81432626 128.81089672 159.79408994 123.66208458 159.7637825 C121.78906773 159.75510818 119.91602009 159.75125717 118.04298401 159.75304985 C105.58017774 159.76119967 93.64121041 158.62677945 81.33886391 156.64119077 C77.11517546 155.99726765 72.87516899 155.66967745 68.61386871 155.40399551 C67.75403885 155.3440239 66.89420898 155.28405228 66.00832367 155.22226334 C63.34992293 155.03867742 60.69096999 154.86567482 58.03183746 154.69305801 C56.2564 154.57134349 54.48100909 154.44894797 52.70566559 154.32587051 C48.36077046 154.02749324 44.01504795 153.74542957 39.66846466 153.47281265 C38.09341938 153.37328921 36.51851327 153.27152438 34.94379425 153.16696548 C21.76877756 152.29317497 8.60943321 152.03715154 -4.59316254 152.00555801 C-5.68884552 152.00260727 -6.7845285 151.99965652 -7.913414 151.99661636 C-24.15173275 151.98678883 -40.23525603 152.64669837 -56.40566254 154.13055801 C-57.320625 154.21332993 -58.23558746 154.29610184 -59.17827606 154.38138199 C-61.81012977 154.62539827 -64.4400551 154.88362888 -67.06972504 155.15008926 C-67.80439499 155.2221257 -68.53906494 155.29416214 -69.29599762 155.3683815 C-73.79857488 155.85612609 -78.19342048 156.59239728 -82.63653755 157.47610569 C-91.50686534 159.19890615 -99.87065305 159.5981327 -108.88522339 159.30083466 C-112.90411532 159.18003546 -116.92441124 159.15339077 -120.94472504 159.10712051 C-126.00451262 159.04179959 -131.06035057 158.95003949 -136.1175766 158.77313614 C-155.51723906 157.13127036 -155.51723906 157.13127036 -172.70424652 163.80047989 C-175.71926389 167.27270181 -177.84981312 171.02736543 -179.77144623 175.19055557 C-181.1629503 178.12394882 -183.00649571 180.64878667 -184.90956879 183.27118301 C-186.06300667 185.03100245 -187.20764117 186.79662508 -188.34316254 188.56805801 C-188.96610199 189.53348526 -189.58904144 190.49891251 -190.23085785 191.49359512 C-209.71189635 221.96565854 -224.20847965 254.1449937 -236.12831879 288.20868301 C-236.68086838 289.78184165 -237.2336423 291.35492152 -237.78664398 292.9279213 C-239.12055982 296.72373444 -240.45147546 300.52058654 -241.78066254 304.31805801 C-241.05511736 304.31252726 -240.32957218 304.3069965 -239.58204079 304.30129814 C-221.85060661 304.16824476 -204.11930077 304.06923954 -186.38747597 304.00718498 C-177.81213724 303.97637088 -169.23713366 303.93443174 -160.66201019 303.8654213 C-153.17967127 303.8052345 -145.69757529 303.76681867 -138.21500099 303.75352705 C-134.26036642 303.7457689 -130.30642629 303.72780359 -126.35201645 303.68367767 C-109.87873095 303.50691716 -95.14201874 303.69973644 -79.78066254 310.31805801 C-78.48733384 310.7143962 -77.18806698 311.09194596 -75.88323212 311.4485817 C-72.78066254 312.31805801 -72.78066254 312.31805801 -71.78066254 313.31805801 C-71.68379219 315.41899626 -71.65879392 317.52325318 -71.66040802 319.62642288 C-71.65912638 320.62613307 -71.65912638 320.62613307 -71.65781885 321.64603943 C-71.65616219 323.89554435 -71.66168843 326.14497589 -71.66713715 328.39447403 C-71.667419 330.00051242 -71.66726131 331.60655095 -71.66669464 333.21258926 C-71.66640661 337.58636869 -71.67230422 341.96012093 -71.6792686 346.33389401 C-71.68550123 350.8996538 -71.68610586 355.46541414 -71.68729401 360.03117752 C-71.69040759 368.68327107 -71.69862134 377.33535205 -71.7086435 385.98744005 C-71.71980379 395.83491624 -71.72531487 405.68239303 -71.73033893 415.52987397 C-71.74080393 435.79260901 -71.7584039 456.05533272 -71.78066254 476.31805801 C-73.86379361 476.00599652 -75.94657171 475.69157819 -78.02919769 475.37616348 C-79.18908203 475.20132431 -80.34896637 475.02648514 -81.54399872 474.84634781 C-85.18355231 474.25229816 -88.60798532 473.44368492 -92.15566254 472.44305801 C-93.42281097 472.09114395 -94.68995941 471.73922989 -95.99550629 471.37665176 C-97.24460785 471.02731583 -98.49370941 470.67797989 -99.78066254 470.31805801 C-102.09262969 469.7118555 -104.40513954 469.10771931 -106.71816254 468.50555801 C-112.40244904 466.99772622 -118.04078767 465.3645199 -123.67910004 463.69330215 C-132.30375554 461.13718319 -140.82897266 458.6543381 -149.68300629 457.02118301 C-152.94824079 456.28002007 -156.02200031 455.26751025 -159.18618011 454.18329239 C-162.09490995 453.21325959 -165.02218959 452.32767909 -167.96035004 451.45087051 C-169.0547641 451.12215958 -170.14917816 450.79344864 -171.27675629 450.45477676 C-173.5200496 449.78308547 -175.76484018 449.11637356 -178.01113129 448.45477676 C-184.3749693 446.53291264 -190.37902993 444.31423674 -196.37807465 441.44379044 C-199.77581943 439.85177731 -203.25004786 438.58375007 -206.78066254 437.31805801 C-206.78066254 436.65805801 -206.78066254 435.99805801 -206.78066254 435.31805801 C-207.66028656 435.03752579 -208.53991058 434.75699356 -209.44618988 434.46796036 C-232.22898038 426.6112505 -253.85592963 413.09137448 -272.78066254 398.31805801 C-273.7410141 397.57040176 -274.70136566 396.82274551 -275.69081879 396.05243301 C-293.15380331 382.0820454 -308.0785945 366.43831359 -319.78066254 347.31805801 C-320.16705902 346.69350723 -320.55345551 346.06895645 -320.95156097 345.42547989 C-327.5855996 334.58191298 -332.39218363 323.22679397 -336.78066254 311.31805801 C-337.15964691 310.30678848 -337.15964691 310.30678848 -337.54628754 309.27508926 C-340.24653125 301.99943258 -342.30636335 294.63890955 -343.96816254 287.06805801 C-344.1231723 286.37897354 -344.27818207 285.68988907 -344.4378891 284.97992325 C-347.61490788 269.54646438 -348.10872388 253.86871347 -348.04140472 238.16522598 C-348.0306465 235.18862041 -348.04139419 232.2126147 -348.05410004 229.23602676 C-348.06654873 213.81712073 -346.9221623 198.95907537 -343.53066254 183.88055801 C-343.20207245 182.41755264 -343.20207245 182.41755264 -342.86684418 180.92499161 C-334.68662981 145.6111823 -316.69003842 114.40136619 -291.78066254 88.31805801 C-291.0188266 87.51497208 -290.25699066 86.71188614 -289.47206879 85.88446426 C-261.48749732 57.10175885 -223.35306584 38.8222781 -185.78066254 26.31805801 C-183.75845562 25.62425596 -181.73632007 24.93024586 -179.71425629 24.23602676 C-148.05509385 13.55283406 -115.31357381 8.02449289 -82.21816254 4.13055801 C-80.27163788 3.89816422 -80.27163788 3.89816422 -78.28578949 3.66107559 C-52.22901471 0.67711145 -26.19602048 -0.05996736 0 0 Z " fill="#12192B" transform="translate(379.7806625366211,14.681941986083984)"/>
<path d="M0 0 C6.82699361 0.75855485 13.30038163 1.71266226 20 3.0625 C21.62071411 3.38903564 21.62071411 3.38903564 23.27416992 3.72216797 C36.3232362 6.40811691 49.25001951 9.59206971 62.17675781 12.80517578 C66.52994553 13.88607701 70.88704448 14.95055215 75.24465942 16.01344299 C113.93349202 25.46030504 113.93349202 25.46030504 131.04394531 31.34033203 C133.77786715 32.26233113 136.54338294 33.06584242 139.3125 33.875 C173.8426837 44.50312148 208.66891721 58.58591047 238 80 C238.54865723 80.39606445 239.09731445 80.79212891 239.66259766 81.20019531 C247.8261838 87.13604648 255.31403817 93.69130736 262.60302734 100.66601562 C263.79431246 101.80358673 264.99929764 102.92678224 266.20703125 104.046875 C284.00943247 121.01535519 300.3731305 145.87434837 307.2421875 169.44921875 C308.01803534 172.06070657 308.99701152 174.49412896 310.0625 177 C313.91945986 186.51869492 315.44716548 195.65137384 315.36076355 205.88311768 C315.3633316 207.01364059 315.36589966 208.14416351 315.36854553 209.3089447 C315.37347555 213.07492672 315.35699909 216.84050043 315.34057617 220.60644531 C315.33798283 223.36129363 315.33992604 226.11613459 315.34167194 228.87098312 C315.34326016 235.482798 315.32947446 242.09448959 315.31016796 248.70627289 C315.28848666 256.36197374 315.28617928 264.01760156 315.28381348 271.67333984 C315.26809096 291.8655793 315.22620733 312.05779153 315.1875 332.25 C315.125625 377.3775 315.06375 422.505 315 469 C211.05 469 107.1 469 0 469 C0 423.13 0 377.26 0 330 C6.93 329.67 13.86 329.34 21 329 C27.10530133 328.33078485 33.17363241 327.61494109 39.25 326.75 C40.43591232 326.58426987 40.43591232 326.58426987 41.64578247 326.41519165 C75.44405578 321.67516151 111.32294618 315.85039572 134.89453125 288.828125 C144.9790066 275.24599617 146.13126831 257.23539564 145 241 C144.2133444 236.92287641 142.98275108 233.63299111 141 230 C140.56429687 229.15695312 140.12859375 228.31390625 139.6796875 227.4453125 C122.38161128 196.34658531 80.55913741 186.29791244 49 177 C47.32454102 176.5062085 47.32454102 176.5062085 45.61523438 176.00244141 C31.80058518 171.96453629 17.92893911 168.45068638 3.84985352 165.46142578 C2 165 2 165 0 164 C0 109.88 0 55.76 0 0 Z " fill="#12192B" transform="translate(454,360)"/>
<path d="M0 0 C1.65445873 -0.00611216 3.30890413 -0.01838353 4.9632777 -0.03624833 C9.49166489 -0.06745251 14.0153881 -0.01172313 18.54318094 0.05864453 C23.43193359 0.11924614 28.32043468 0.09863414 33.2094574 0.0880127 C41.67371829 0.08068033 50.13646549 0.12450907 58.60034561 0.20334244 C70.8373383 0.31724458 83.07360093 0.35359462 95.31106625 0.37117432 C115.16627812 0.40179639 135.02068361 0.49491299 154.87545776 0.62741089 C174.15959648 0.75596672 193.44351598 0.85503986 212.72799683 0.91452026 C214.51177283 0.92003746 214.51177283 0.92003746 216.33158471 0.92566611 C222.29752141 0.94393697 228.26345967 0.9616288 234.22939897 0.97903275 C283.70344715 1.12410827 333.17662011 1.37064008 382.64987183 1.68356323 C381.33142465 5.08258389 379.95745711 7.93449653 377.84909058 10.91403198 C377.29076538 11.70769165 376.73244019 12.50135132 376.15719604 13.31906128 C375.55665405 14.16122192 374.95611206 15.00338257 374.33737183 15.87106323 C373.71362671 16.75382935 373.08988159 17.63659546 372.44723511 18.54611206 C367.80601577 25.10017931 363.10857463 31.61356388 358.39767456 38.11764526 C349.60373195 50.26033185 341.02595127 62.54160817 332.58737183 74.93356323 C331.47893921 76.55983643 331.47893921 76.55983643 330.34811401 78.21896362 C329.65234253 79.24368774 328.95657104 80.26841187 328.23971558 81.32418823 C327.30953613 82.69365601 327.30953613 82.69365601 326.36056519 84.09078979 C324.72026426 86.57687454 323.18227517 89.12955766 321.64987183 91.68356323 C276.10987183 91.68356323 230.56987183 91.68356323 183.64987183 91.68356323 C183.64987183 268.89356323 183.64987183 446.10356323 183.64987183 628.68356323 C159.14360833 628.68356323 159.14360833 628.68356323 152.78086853 622.33273315 C151.57327126 620.95951904 151.57327126 620.95951904 150.34127808 619.55856323 C148.98122902 618.15537842 148.98122902 618.15537842 147.59370422 616.72384644 C145.2143636 614.26729657 142.90883267 611.752118 140.61410522 609.21670532 C138.27745455 606.66100001 135.87375993 604.17009248 133.4760437 601.67184448 C121.10643469 588.71920121 121.10643469 588.71920121 117.21875221 583.91509187 C114.12574681 580.17088789 111.17346034 577.2159203 107.10061836 574.55022621 C100.12224892 569.62838835 94.34019366 564.04929556 92.62293768 555.39503431 C90.81836987 543.04890534 91.34803162 530.37979834 91.56069064 517.94371986 C91.63891567 512.20166879 91.61208436 506.45994856 91.59844971 500.71751404 C91.58904158 490.785295 91.64518879 480.85521529 91.7467308 470.92353439 C91.89344079 456.56463949 91.93993888 442.20677193 91.96251465 427.84720881 C92.00184479 404.54663164 92.12129803 381.24719353 92.29196167 357.94723511 C92.45748647 335.32262048 92.58488967 312.69831116 92.66110229 290.07321167 C92.66346977 289.37486692 92.66583724 288.67652217 92.66827645 287.95701545 C92.69201139 280.94345629 92.7149758 273.92989478 92.73737592 266.91633123 C92.92506993 208.17116285 93.25751471 149.42780651 93.64987183 90.68356323 C41.83987183 90.68356323 -9.97012817 90.68356323 -63.35012817 90.68356323 C-61.52065186 83.97548342 -59.83609023 77.81268901 -57.16262817 71.49606323 C-56.86219604 70.77829712 -56.56176392 70.06053101 -56.25222778 69.3210144 C-49.54228986 53.54480585 -41.23576629 38.59644207 -31.97512817 24.18356323 C-31.565448 23.5442688 -31.15576782 22.90497437 -30.7336731 22.24630737 C-29.86985034 20.91956379 -28.98517355 19.60619503 -28.08153331 18.30624402 C-26.24177662 15.59244119 -26.24177662 15.59244119 -24.4345504 12.2316426 C-18.17021937 1.50883842 -12.19804277 -0.33617239 0 0 Z " fill="#ED6348" transform="translate(242.35012817382813,200.31643676757813)"/>
<path d="M0 0 C2.96180632 0.60579626 5.0741429 1.51082657 7.58203125 3.1875 C8.59583862 3.85700684 8.59583862 3.85700684 9.63012695 4.54003906 C10.35031006 5.02182617 11.07049316 5.50361328 11.8125 6 C13.36350168 7.01727608 14.91560258 8.032878 16.46875 9.046875 C17.24089844 9.55154297 18.01304688 10.05621094 18.80859375 10.57617188 C66.2779997 41.41859339 120.36618016 62.79465303 175 77 C176.42868408 77.38164307 176.42868408 77.38164307 177.88623047 77.77099609 C191.7946788 81.48477026 205.78966578 84.44309775 219.93408203 87.08422852 C221.19978027 87.32069092 222.46547852 87.55715332 223.76953125 87.80078125 C224.89979736 88.00872314 226.03006348 88.21666504 227.19458008 88.4309082 C230 89 230 89 233 90 C232.9592334 91.08676025 232.9184668 92.17352051 232.87646484 93.29321289 C232.50445331 103.64514503 232.26487216 113.99325505 232.1476593 124.35128784 C232.08334981 129.67508142 231.97601778 134.99000491 231.76220703 140.31005859 C229.85570282 167.33409594 229.85570282 167.33409594 240.82640076 190.8782959 C246.0250672 196.27786196 251.87390809 200.71008435 258 205 C261.39687731 207.64516 264.50785049 210.36068017 267.25390625 213.69140625 C271.54248843 218.71659049 276.23316395 223.30471279 280.9375 227.9375 C282.65718872 229.63184327 284.37476647 231.32833277 286.08984375 233.02734375 C286.84128662 233.76718506 287.59272949 234.50702637 288.36694336 235.26928711 C290 237 290 237 290 238 C169.55 238 49.1 238 -75 238 C-75 131.95769985 -75 131.95769985 -56.74487305 99.71801758 C-52.527195 92.26681032 -48.32819898 84.8067655 -44.1875 77.3125 C-39.25067712 68.38437786 -34.17867675 59.53392009 -29.10766602 50.68164062 C-24.75104677 43.07483495 -20.42572984 35.45107118 -16.125 27.8125 C-10.86348883 18.47347986 -5.47847647 9.21323922 0 0 Z " fill="#12192B" transform="translate(75,591)"/>
<path d="M0 0 C60.39 0 120.78 0 183 0 C183 184.14 183 368.28 183 558 C179.57436159 556.28718079 177.94631425 555.19438433 175.35546875 552.5859375 C174.33936523 551.56693359 174.33936523 551.56693359 173.30273438 550.52734375 C172.60470703 549.81707031 171.90667969 549.10679687 171.1875 548.375 C170.50107422 547.68792969 169.81464844 547.00085938 169.10742188 546.29296875 C163.60484469 540.74353897 163.60484469 540.74353897 161.58120811 538.25587118 C158.48521613 534.50163802 155.532312 531.53692418 151.45074654 528.86666298 C144.47237709 523.94482511 138.69032184 518.36573233 136.97306585 509.71147108 C135.16849804 497.36534211 135.69815979 484.69623511 135.91081882 472.26015663 C135.98904384 466.51810556 135.96221254 460.77638532 135.94857788 455.03395081 C135.93916976 445.10173177 135.99531696 435.17165206 136.09685898 425.23997116 C136.24356896 410.88107626 136.29006706 396.5232087 136.31264283 382.16364558 C136.35197296 358.86306841 136.4714262 335.5636303 136.64208984 312.26367188 C136.80761464 289.63905725 136.93501784 267.01474792 137.01123047 244.38964844 C137.01359794 243.69130369 137.01596541 242.99295893 137.01840462 242.27345222 C137.04213956 235.25989306 137.06510398 228.24633154 137.08750409 221.23276799 C137.2751981 162.48759962 137.60764289 103.74424327 138 45 C86.19 45 34.38 45 -19 45 C-17.17036486 38.29133781 -15.48508165 32.12979352 -12.8125 25.8125 C-12.51714355 25.10416016 -12.22178711 24.39582031 -11.91748047 23.66601562 C-3.2628014 3.2628014 -3.2628014 3.2628014 0 0 Z " fill="#762C32" transform="translate(198,246)"/>
<path d="M0 0 C130.02 0 260.04 0 394 0 C394 1.32 394 2.64 394 4 C393.34 4 392.68 4 392 4 C391.67 5.65 391.34 7.3 391 9 C390.34 9 389.68 9 389 9 C389 9.99 389 10.98 389 12 C388.34 12 387.68 12 387 12 C387 12.99 387 13.98 387 15 C386.34 15 385.68 15 385 15 C385 15.99 385 16.98 385 18 C383.515 18.99 383.515 18.99 382 20 C380.80767387 22.05003955 380.80767387 22.05003955 380 24 C379.34 24 378.68 24 378 24 C377.34 25.98 376.68 27.96 376 30 C375.34 30 374.68 30 374 30 C373.566875 31.1446875 373.566875 31.1446875 373.125 32.3125 C372 35 372 35 370 38 C369.34 38 368.68 38 368 38 C368 39.32 368 40.64 368 42 C367.16953659 41.99870118 366.33907318 41.99740236 365.48344421 41.99606419 C345.21555731 41.96677977 324.94800766 41.97636402 304.68016052 42.02846622 C294.87847412 42.05273961 285.07709579 42.06417058 275.27539062 42.04467773 C266.72570474 42.02770814 258.17645007 42.03553844 249.62682056 42.07234758 C245.10557362 42.09096831 240.58505484 42.0977146 236.06381226 42.07469368 C231.79524907 42.05335295 227.52800922 42.06553953 223.25955963 42.10184479 C221.70533673 42.10944559 220.15100019 42.10550225 218.59685516 42.08818626 C204.26522835 41.94093296 192.50093392 46.1103037 180.89453125 54.73828125 C179 56 179 56 176.34765625 57.0390625 C173.12942046 58.3563437 172.68328866 59.95713204 171 63 C169.88180159 64.3390426 168.75590629 65.67167257 167.625 67 C163.30322495 72.42286424 161.18620737 78.48167664 159 85 C158.34 85 157.68 85 157 85 C155.57339441 70.73394406 156 56.33720878 156 42 C95.28 42 34.56 42 -28 42 C-24.25825569 35.14013543 -20.52252733 28.39326842 -16.4375 21.75 C-15.98181641 20.99976563 -15.52613281 20.24953125 -15.05664062 19.4765625 C-6.87939979 6.12311659 -6.87939979 6.12311659 -1 4 C-0.67 2.68 -0.34 1.36 0 0 Z " fill="#ED6246" transform="translate(226,204)"/>
<path d="M0 0 C1.81753136 0.00056958 1.81753136 0.00056958 3.67178053 0.00115067 C4.68400294 -0.0005801 4.68400294 -0.0005801 5.7166743 -0.00234583 C8.00622 -0.00501903 10.29569713 -0.00048461 12.58523935 0.00394398 C14.23189792 0.00350842 15.87855642 0.0026338 17.52521455 0.00135481 C22.07219192 -0.00089317 26.61914596 0.00313525 31.16612035 0.00813287 C36.06117237 0.01243287 40.95622296 0.01099127 45.85127634 0.0102306 C54.33962245 0.00970508 62.82796091 0.01285482 71.3163051 0.01846844 C83.5891764 0.02657963 95.86204398 0.02919827 108.13491767 0.03045643 C128.04462478 0.03264755 147.9543278 0.03930926 167.86403269 0.04875904 C187.2097356 0.05793161 206.55543741 0.0650132 225.90114206 0.06926686 C227.09269057 0.06952958 228.28423908 0.0697923 229.51189513 0.07006299 C235.48926892 0.07136798 241.46664271 0.0726317 247.44401652 0.07387489 C297.06848111 0.08424938 346.69294127 0.10186932 396.31740183 0.1241985 C394.99895465 3.52321915 393.62498711 6.37513179 391.51662058 9.35466725 C390.95829538 10.14832691 390.39997019 10.94198658 389.82472605 11.75969654 C389.22418405 12.60185719 388.62364206 13.44401783 388.00490183 14.3116985 C387.38115671 15.19446461 386.75741159 16.07723072 386.11476511 16.98674732 C381.47354577 23.54081457 376.77610463 30.05419914 372.06520456 36.55828053 C363.27126195 48.70096712 354.69348127 60.98224343 346.25490183 73.3741985 C345.14646921 75.00047169 345.14646921 75.00047169 344.01564401 76.65959889 C343.31987253 77.68432301 342.62410105 78.70904713 341.90724558 79.7648235 C340.97706613 81.13429127 340.97706613 81.13429127 340.02809519 82.53142506 C338.38779426 85.01750981 336.84980517 87.57019292 335.31740183 90.1241985 C289.77740183 90.1241985 244.23740183 90.1241985 197.31740183 90.1241985 C197.31740183 267.3341985 197.31740183 444.5441985 197.31740183 627.1241985 C196.98740183 627.1241985 196.65740183 627.1241985 196.31740183 627.1241985 C196.31566558 626.10348666 196.31392933 625.08277483 196.31214046 624.03113234 C196.23555555 579.04611224 196.15775215 534.06109441 196.07373422 489.07608753 C196.07246254 488.39501708 196.07119086 487.71394662 196.06988065 487.01223767 C196.04223618 472.21068057 196.01437312 457.4091239 195.98628489 442.60756764 C195.97251172 435.3488698 195.95878685 428.09017187 195.94508737 420.83147389 C195.94304125 419.74798334 195.94304125 419.74798334 195.94095379 418.64260409 C195.89676394 395.23064064 195.85576365 371.81867291 195.8164177 348.40670085 C195.7759672 324.34751378 195.73229827 300.28833463 195.68458072 276.22916082 C195.67784218 272.83083561 195.67114043 269.43251032 195.66446108 266.03418499 C195.66314535 265.36534697 195.66182962 264.69650894 195.66047402 264.0074031 C195.6406963 253.90847056 195.62374719 243.80953573 195.60832781 233.71059567 C195.59076153 222.2202324 195.56991697 210.72988115 195.54473341 199.23953194 C195.53198762 193.37527093 195.5208472 187.51101827 195.51398271 181.64674717 C195.50766343 176.27818444 195.49681743 170.9096506 195.48236852 165.54110377 C195.47794062 163.59883314 195.47517507 161.65655786 195.47423983 159.7142824 C195.47272466 157.07296717 195.46513848 154.43173489 195.45606703 151.79043633 C195.45760103 150.66114622 195.45760103 150.66114622 195.45916602 149.50904217 C195.44817868 147.37767263 195.39798322 145.25404676 195.31740183 143.1241985 C195.287318 142.31010979 195.25723418 141.49602109 195.22623872 140.65726303 C195.17096258 139.84886058 195.11568643 139.04045813 195.05873525 138.20755863 C194.99100273 137.10669345 194.99100273 137.10669345 194.92190188 135.98358857 C194.47795017 133.93635367 194.47795017 133.93635367 192.38996497 132.93417403 C191.70601913 132.66688211 191.0220733 132.39959018 190.31740183 132.1241985 C189.00084176 131.40238836 187.68859256 130.67268004 186.37990183 129.9366985 C180.39721191 126.5951961 174.35613445 123.36290054 168.31740183 120.1241985 C168.31740183 119.4641985 168.31740183 118.8041985 168.31740183 118.1241985 C167.29646433 117.8148235 167.29646433 117.8148235 166.25490183 117.4991985 C161.00433576 115.04148672 156.4132166 111.05185633 153.31740183 106.1241985 C151.10228461 95.56547311 156.17131898 82.05909861 161.14943308 72.85466725 C163.08215715 69.99113291 165.37685642 67.4803293 167.71974558 64.94841725 C169.48117046 63.06197957 169.48117046 63.06197957 170.94240183 60.2491985 C172.72161857 57.49949989 174.2957996 57.29073869 177.31740183 56.1241985 C178.81359008 55.2355858 180.29234002 54.31713262 181.75490183 53.3741985 C194.02479895 46.00477618 203.78081768 43.23159918 217.9614448 43.44304615 C219.57925217 43.44474315 221.19706415 43.44377973 222.81486887 43.44039112 C227.16142485 43.43868562 231.50696585 43.47369752 235.85328811 43.51583487 C240.41224589 43.55361328 244.9712328 43.55688842 249.53032297 43.56398731 C258.14324182 43.58255714 266.75569793 43.63168643 275.36841398 43.69208425 C285.18227105 43.75939572 294.99615144 43.79220005 304.81018227 43.82225686 C324.97951267 43.88479346 345.14842797 43.99017378 365.31740183 44.1241985 C365.31740183 42.8041985 365.31740183 41.4841985 365.31740183 40.1241985 C365.97740183 40.1241985 366.63740183 40.1241985 367.31740183 40.1241985 C367.60615183 39.3610735 367.89490183 38.5979485 368.19240183 37.8116985 C369.31740183 35.1241985 369.31740183 35.1241985 371.31740183 32.1241985 C371.97740183 32.1241985 372.63740183 32.1241985 373.31740183 32.1241985 C373.42052683 31.5260735 373.52365183 30.9279485 373.62990183 30.3116985 C374.42875834 27.76988232 375.41811728 26.95043364 377.31740183 25.1241985 C377.83302683 24.2373235 378.34865183 23.3504485 378.87990183 22.4366985 C379.35427683 21.6735735 379.82865183 20.9104485 380.31740183 20.1241985 C380.97740183 20.1241985 381.63740183 20.1241985 382.31740183 20.1241985 C382.31740183 19.1341985 382.31740183 18.1441985 382.31740183 17.1241985 C382.97740183 17.1241985 383.63740183 17.1241985 384.31740183 17.1241985 C384.31740183 16.1341985 384.31740183 15.1441985 384.31740183 14.1241985 C384.97740183 14.1241985 385.63740183 14.1241985 386.31740183 14.1241985 C386.31740183 13.1341985 386.31740183 12.1441985 386.31740183 11.1241985 C386.97740183 11.1241985 387.63740183 11.1241985 388.31740183 11.1241985 C388.64740183 9.4741985 388.97740183 7.8241985 389.31740183 6.1241985 C389.97740183 6.1241985 390.63740183 6.1241985 391.31740183 6.1241985 C391.31740183 4.8041985 391.31740183 3.4841985 391.31740183 2.1241985 C390.3925769 2.13027402 389.46775198 2.13634955 388.51490206 2.14260918 C357.90750944 2.34298403 327.30000688 2.52203065 296.69240183 2.6866985 C294.91933129 2.69627276 294.91933129 2.69627276 293.11044115 2.70604044 C220.42607953 3.09716245 147.75143818 3.15504963 75.06740183 2.6866985 C74.07012284 2.68030055 73.07284385 2.6739026 72.04534429 2.66731077 C47.13586832 2.50710476 22.22655958 2.32800208 -2.68259817 2.1241985 C-3.01259817 3.7741985 -3.34259817 5.4241985 -3.68259817 7.1241985 C-5.00259817 7.4541985 -6.32259817 7.7841985 -7.68259817 8.1241985 C-3.18666085 0.14753551 -3.18666085 0.14753551 0 0 Z " fill="#EE8F65" transform="translate(228.68259817361832,201.8758015036583)"/>
<path d="M0 0 C7.83461538 4.47692308 7.83461538 4.47692308 10.6640625 6.375 C75.15746908 49.13888828 148.59600441 76.21111832 223.4375 94.3125 C224.43700684 94.55492432 225.43651367 94.79734863 226.46630859 95.04711914 C232.9429141 96.58815715 239.43866063 97.87453524 246 99 C246 99.33 246 99.66 246 100 C164.82 100 83.64 100 0 100 C0 67 0 34 0 0 Z " fill="#FDFDFD" transform="translate(0,729)"/>
<path d="M0 0 C0.33 0 0.66 0 1 0 C1 55.77 1 111.54 1 169 C-60.71 169 -122.42 169 -186 169 C-182.21386828 167.10693414 -179.16209972 166.24749643 -175.0625 165.3125 C-161.99064131 162.18512178 -148.80328657 158.16493558 -136.69140625 152.2890625 C-134.03186696 151.01526284 -131.33439632 149.86292345 -128.61669922 148.71972656 C-103.32590654 137.99330554 -79.61208561 123.88776218 -59.390625 105.19921875 C-57.80092726 103.73680073 -56.18598381 102.30134598 -54.546875 100.89453125 C-25.31741915 75.66344436 -6.35523204 37.68697043 0 0 Z " fill="#FDFDFD" transform="translate(768,660)"/>
<path d="M0 0 C1.81753136 0.00056958 1.81753136 0.00056958 3.67178053 0.00115067 C4.68400294 -0.0005801 4.68400294 -0.0005801 5.7166743 -0.00234583 C8.00622 -0.00501903 10.29569713 -0.00048461 12.58523935 0.00394398 C14.23189792 0.00350842 15.87855642 0.0026338 17.52521455 0.00135481 C22.07219192 -0.00089317 26.61914596 0.00313525 31.16612035 0.00813287 C36.06117237 0.01243287 40.95622296 0.01099127 45.85127634 0.0102306 C54.33962245 0.00970508 62.82796091 0.01285482 71.3163051 0.01846844 C83.5891764 0.02657963 95.86204398 0.02919827 108.13491767 0.03045643 C128.04462478 0.03264755 147.9543278 0.03930926 167.86403269 0.04875904 C187.2097356 0.05793161 206.55543741 0.0650132 225.90114206 0.06926686 C227.09269057 0.06952958 228.28423908 0.0697923 229.51189513 0.07006299 C235.48926892 0.07136798 241.46664271 0.0726317 247.44401652 0.07387489 C297.06848111 0.08424938 346.69294127 0.10186932 396.31740183 0.1241985 C394.99895465 3.52321915 393.62498711 6.37513179 391.51662058 9.35466725 C390.95748972 10.14961598 390.39835886 10.94456471 389.82228464 11.76360279 C388.92268015 13.02491017 388.92268015 13.02491017 388.00490183 14.3116985 C387.38840769 15.18286305 386.77191355 16.0540276 386.13673776 16.95159107 C384.20249726 19.6797767 382.26017127 22.40208205 380.31740183 25.1241985 C379.69107858 26.00720631 379.06475534 26.89021412 378.41945261 27.79997975 C376.64066823 30.30766626 374.85547635 32.81063021 373.06740183 35.3116985 C372.51914743 36.0834441 371.97089304 36.85518971 371.40602487 37.65032154 C370.89724802 38.35713063 370.38847116 39.06393971 369.86427683 39.79216725 C369.419228 40.41373707 368.97417917 41.03530689 368.51564401 41.67571217 C367.31740183 43.1241985 367.31740183 43.1241985 365.31740183 44.1241985 C365.31740183 42.8041985 365.31740183 41.4841985 365.31740183 40.1241985 C365.97740183 40.1241985 366.63740183 40.1241985 367.31740183 40.1241985 C367.60615183 39.3610735 367.89490183 38.5979485 368.19240183 37.8116985 C369.31740183 35.1241985 369.31740183 35.1241985 371.31740183 32.1241985 C371.97740183 32.1241985 372.63740183 32.1241985 373.31740183 32.1241985 C373.42052683 31.5260735 373.52365183 30.9279485 373.62990183 30.3116985 C374.42875834 27.76988232 375.41811728 26.95043364 377.31740183 25.1241985 C377.83302683 24.2373235 378.34865183 23.3504485 378.87990183 22.4366985 C379.35427683 21.6735735 379.82865183 20.9104485 380.31740183 20.1241985 C380.97740183 20.1241985 381.63740183 20.1241985 382.31740183 20.1241985 C382.31740183 19.1341985 382.31740183 18.1441985 382.31740183 17.1241985 C382.97740183 17.1241985 383.63740183 17.1241985 384.31740183 17.1241985 C384.31740183 16.1341985 384.31740183 15.1441985 384.31740183 14.1241985 C384.97740183 14.1241985 385.63740183 14.1241985 386.31740183 14.1241985 C386.31740183 13.1341985 386.31740183 12.1441985 386.31740183 11.1241985 C386.97740183 11.1241985 387.63740183 11.1241985 388.31740183 11.1241985 C388.64740183 9.4741985 388.97740183 7.8241985 389.31740183 6.1241985 C389.97740183 6.1241985 390.63740183 6.1241985 391.31740183 6.1241985 C391.31740183 4.8041985 391.31740183 3.4841985 391.31740183 2.1241985 C390.3925769 2.13027402 389.46775198 2.13634955 388.51490206 2.14260918 C357.90750944 2.34298403 327.30000688 2.52203065 296.69240183 2.6866985 C294.91933129 2.69627276 294.91933129 2.69627276 293.11044115 2.70604044 C220.42607953 3.09716245 147.75143818 3.15504963 75.06740183 2.6866985 C74.07012284 2.68030055 73.07284385 2.6739026 72.04534429 2.66731077 C47.13586832 2.50710476 22.22655958 2.32800208 -2.68259817 2.1241985 C-3.01259817 3.7741985 -3.34259817 5.4241985 -3.68259817 7.1241985 C-5.00259817 7.4541985 -6.32259817 7.7841985 -7.68259817 8.1241985 C-3.18666085 0.14753551 -3.18666085 0.14753551 0 0 Z " fill="#D17966" transform="translate(228.68259817361832,201.8758015036583)"/>
<path d="M0 0 C16.5 0 33 0 50 0 C50 18.81 50 37.62 50 57 C47.65418016 54.65418016 47.23551281 53.05920363 46.265625 49.90625 C45.77449219 48.359375 45.77449219 48.359375 45.2734375 46.78125 C44.60141192 44.62666416 43.9345747 42.47045183 43.2734375 40.3125 C39.18995376 27.52391527 33.42549237 17.17402041 21.30249023 10.87011719 C15.24038825 7.83871631 9.11056378 5.07121978 2.72265625 2.7890625 C1 2 1 2 0 0 Z " fill="#5C2228" transform="translate(330,246)"/>
<path d="M0 0 C2.39072144 3.58608216 2.27604811 6.12227365 2.24330235 10.26021385 C2.24531044 11.00871015 2.24731853 11.75720644 2.24938747 12.52838445 C2.25370622 15.05680548 2.24365904 17.58497019 2.23377991 20.1133728 C2.23393585 21.93653186 2.23497325 23.75969102 2.23682016 25.58284914 C2.23936114 30.6092637 2.22939002 35.63558907 2.2174722 40.6619873 C2.20680952 46.07751711 2.20767241 51.49304604 2.2071991 56.90858459 C2.20483277 66.30157168 2.19523628 75.69452923 2.18089485 85.08750534 C2.16022479 98.69114442 2.1515344 112.29477082 2.1459735 125.89842351 C2.13670733 147.99804595 2.11926372 170.0976538 2.09594727 192.19726562 C2.09453971 193.53425406 2.09313232 194.87124249 2.0917251 196.20823093 C2.0910275 196.87063845 2.0903299 197.53304597 2.08961116 198.21552645 C2.08608294 201.56602723 2.08255867 204.91652802 2.07904053 208.26702881 C2.07834207 208.93126297 2.07764361 209.59549713 2.07692398 210.27985961 C2.06078011 225.67192297 2.0471531 241.06398814 2.03442383 256.45605469 C2.03333298 257.77260608 2.03224213 259.08915748 2.03111822 260.44560437 C2.01306114 282.43923021 1.99911071 304.43285756 1.98725218 326.42648757 C1.97968014 339.98409488 1.9679603 353.54168722 1.95079052 367.09928586 C1.93917297 376.40637835 1.93102096 385.71346965 1.92552502 395.02056776 C1.92221145 400.3820531 1.91723347 405.74352325 1.90771103 411.10500145 C1.89898368 416.02810938 1.89505006 420.95119859 1.89467566 425.87431403 C1.8937219 427.64107535 1.8910939 429.40783688 1.88647438 431.17459242 C1.87446405 435.95762441 1.89663239 440.73814496 1.96909793 445.52067229 C1.9907959 447.26153908 2.00111281 449.00256704 2.00304525 450.74356797 C2.01102534 453.56411552 2.06053744 456.38152199 2.11775875 459.20145607 C2.11281943 460.05975819 2.1078801 460.91806031 2.1027911 461.80237158 C2.33712986 469.62326948 5.97688413 473.84096189 11.26940918 479.27868652 C11.85403931 479.78033325 12.43866943 480.28197998 13.04101562 480.79882812 C13.70012939 481.37576416 14.35924316 481.9527002 15.03833008 482.54711914 C15.70630615 483.12969482 16.37428223 483.71227051 17.0625 484.3125 C18.41145745 485.56084954 19.75590401 486.8140919 21.09570312 488.07226562 C24.34801411 491.10695537 27.65367306 494.06944531 31 497 C30.34 497.66 29.68 498.32 29 499 C28.16339844 498.09121094 27.32679688 497.18242188 26.46484375 496.24609375 C25.28921828 494.97641824 24.11342768 493.70689562 22.9375 492.4375 C22.39544922 491.84775391 21.85339844 491.25800781 21.29492188 490.65039062 C20.71162109 490.02197266 20.12832031 489.39355469 19.52734375 488.74609375 C18.58943917 487.71581404 18.58943917 487.71581404 17.63258702 486.66472059 C15.58766199 484.59483504 13.57451181 482.78819141 11.34004205 480.94463867 C5.09209382 475.59981816 -0.55516137 470.70028881 -1.69547096 462.22145564 C-1.96490814 457.93238145 -1.91227077 453.68490498 -1.80381775 449.39112854 C-1.81037113 447.44361934 -1.82352745 445.49612323 -1.84265524 443.54869694 C-1.87599481 438.23352616 -1.81650269 432.92294038 -1.74098432 427.6083535 C-1.67592062 421.86419637 -1.69814779 416.12027669 -1.70951843 410.37585449 C-1.71736606 400.43567176 -1.6704944 390.49697123 -1.58595085 380.55716133 C-1.46379878 366.18631468 -1.42495458 351.81618129 -1.40613098 337.44487178 C-1.3733396 314.12617178 -1.27374974 290.80826127 -1.1315918 267.48999023 C-0.99369746 244.84484948 -0.88750666 222.19992019 -0.82397461 199.55444336 C-0.82200172 198.85570403 -0.82002882 198.1569647 -0.81799615 197.43705145 C-0.79821736 190.41965274 -0.7790803 183.4022524 -0.76041326 176.38485065 C-0.60395097 117.58938076 -0.33939917 58.79469471 0 0 Z " fill="#653237" transform="translate(336,291)"/>
<path d="M0 0 C0.33 0 0.66 0 1 0 C1.14573409 3.87358108 1.28794784 7.74727578 1.42724609 11.62109375 C1.4979223 13.56777274 1.57118759 15.51435719 1.64453125 17.4609375 C1.94882047 25.98103571 2.0594191 34.47500977 2 43 C2.66 43 3.32 43 4 43 C3.67 44.093125 3.34 45.18625 3 46.3125 C1.71133786 51.46714856 1.41961154 56.71675798 2 62 C2.66 62.99 3.32 63.98 4 65 C3.67507572 65.49218834 3.35015145 65.98437668 3.01538098 66.49147981 C1.59005963 70.01276636 1.72854763 73.39719894 1.75390434 77.13632298 C1.75044281 78.38285252 1.75044281 78.38285252 1.74691135 79.65456447 C1.74158994 82.45749762 1.75061322 85.26020403 1.75949097 88.06312561 C1.75861933 90.08559248 1.75686914 92.10805913 1.75431263 94.13052458 C1.74982667 99.70249522 1.75785996 105.27438942 1.76786876 110.84635031 C1.77648317 116.84980181 1.77358451 122.85324878 1.77206421 128.85670471 C1.77101403 139.26355458 1.77723503 149.67038386 1.78853989 160.07722664 C1.80036979 170.99544455 1.80807091 181.91365248 1.81024551 192.83187675 C1.81038299 193.51047634 1.81052047 194.18907593 1.81066212 194.88823915 C1.81133878 198.33449297 1.81194155 201.7807468 1.81251587 205.22700065 C1.81671844 229.64719017 1.83019738 254.06736665 1.84912109 278.48754883 C1.86747974 302.2059726 1.88165253 325.92439281 1.89013672 349.64282227 C1.89039977 350.37353437 1.89066282 351.10424647 1.89093385 351.85710136 C1.89357097 359.19546327 1.89612265 366.5338252 1.89861157 373.87218715 C1.90368634 388.82945939 1.9093283 403.7867314 1.91531372 418.7440033 C1.9155883 419.43195108 1.91586288 420.11989886 1.91614578 420.82869355 C1.93283208 462.48799324 1.96059863 504.1472862 1.99067581 545.80657822 C1.99131001 546.68738215 1.99194422 547.56818608 1.99259764 548.47568104 C1.99376985 550.09858113 1.99495186 551.72148122 1.99614578 553.3443813 C1.99823383 556.22958839 2 559.11479204 2 562 C-0.62546147 559.46926443 -1.22649782 557.44611238 -1.36618346 553.92529368 C-1.37741046 552.21466606 -1.37186575 550.50388205 -1.35352612 548.79331589 C-1.35529927 547.84658799 -1.35707243 546.8998601 -1.35889933 545.92444348 C-1.36117866 542.72782756 -1.34187151 539.53169884 -1.32279968 536.33514404 C-1.31997913 534.03005443 -1.31847945 531.72496289 -1.31819278 529.41987157 C-1.31355493 523.0667496 -1.2900849 516.71381284 -1.26365387 510.36074924 C-1.2395583 504.21913214 -1.23249816 498.07748351 -1.22366321 491.93582937 C-1.2050972 479.36976259 -1.1725164 466.80376843 -1.13199425 454.23775482 C-1.09190819 441.7928236 -1.05802299 429.34790105 -1.03244972 416.90293121 C-1.03085716 416.12962467 -1.02926459 415.35631812 -1.02762377 414.55957805 C-1.01956853 410.632469 -1.01162438 406.70535973 -1.003723 402.77825037 C-0.94753327 374.95043917 -0.87739453 347.12267884 -0.79907227 319.29492188 C-0.72300722 292.25782654 -0.65324826 265.22072698 -0.59204102 238.18359375 C-0.59015238 237.35043666 -0.58826375 236.51727956 -0.58631788 235.65887528 C-0.5673587 227.29209687 -0.54852788 218.92531817 -0.5297911 210.55853925 C-0.49161799 193.51389831 -0.45258806 176.46925938 -0.41304016 159.42462158 C-0.4112228 158.64090792 -0.40940544 157.85719426 -0.40753301 157.04973171 C-0.28604014 104.69978452 -0.14451056 52.3498881 0 0 Z " fill="#DE6B59" transform="translate(381,246)"/>
<path d="M0 0 C0.33 0 0.66 0 1 0 C2.08753383 4.39406007 2.13852468 8.67672237 2.12304783 13.17404652 C2.12420167 13.9969886 2.12535552 14.81993069 2.12654433 15.66781041 C2.12920019 18.43715524 2.12469726 21.20644242 2.12025452 23.9757843 C2.12069043 25.97650309 2.1215657 27.97722183 2.12284368 29.97794026 C2.12508471 35.4850125 2.12107267 40.99206537 2.11606562 46.49913514 C2.11175572 52.43434469 2.11320793 58.36955311 2.1139679 64.30476379 C2.11449279 74.59100402 2.11138445 84.87723836 2.10573006 95.16347694 C2.09981448 105.95247744 2.0959644 116.74147542 2.09487724 127.53047752 C2.0948085 128.20112567 2.09473976 128.87177381 2.09466894 129.56274462 C2.09433061 132.96858157 2.09402923 136.37441851 2.09374207 139.78025546 C2.09164125 163.90827424 2.08490278 188.03628972 2.07543945 212.16430664 C2.06625616 235.60538719 2.05917199 259.04646684 2.05493164 282.48754883 C2.05480011 283.21001426 2.05466859 283.93247969 2.05453308 284.67683801 C2.05321456 291.93208547 2.05193875 299.18733293 2.05069422 306.4425804 C2.04815796 321.22255914 2.0453367 336.00253783 2.04234314 350.78251648 C2.04220585 351.46208667 2.04206856 352.14165686 2.04192711 352.84182008 C2.03272533 398.22788145 2.01685922 443.6139409 2 489 C1.67 489 1.34 489 1 489 C0.99826375 488.11308131 0.9965275 487.22616263 0.99473864 486.31236762 C0.89153094 433.65272705 0.78338082 380.99309859 0.66888306 328.33348129 C0.6551148 321.99925779 0.64138751 315.6650342 0.62768555 309.33081055 C0.62495724 308.06987227 0.62222894 306.80893398 0.61941796 305.50978545 C0.57543915 285.13907266 0.53477257 264.76835456 0.49534739 244.3976325 C0.45476715 223.46853436 0.41058727 202.53944602 0.36312145 181.61036235 C0.33398512 168.71400488 0.30759887 155.81764797 0.28482103 142.92127768 C0.2688948 134.05702529 0.24944693 125.1927848 0.22733159 116.32854571 C0.2147061 111.22760542 0.20353529 106.12667395 0.19658089 101.0257225 C0.18075423 73.6899815 0.18075423 73.6899815 -0.6931929 46.37092084 C-1.06081153 38.57209572 -0.79451616 30.90871041 -0.26171875 23.125 C0.46970126 13.1236945 0.46970126 13.1236945 -0.5703125 3.2109375 C-0.71210938 2.48132813 -0.85390625 1.75171875 -1 1 C-0.67 0.67 -0.34 0.34 0 0 Z " fill="#CD6A54" transform="translate(423,340)"/>
<path d="M0 0 C0.33 1.32 0.66 2.64 1 4 C0.01 4.33 -0.98 4.66 -2 5 C-3.21869929 7.50447516 -3.21869929 7.50447516 -4 10 C-34.41916034 10.89704189 -64.77311453 11.03184486 -95.20117188 10.60510254 C-101.45963133 10.51940722 -107.71824461 10.44575543 -113.97682953 10.36989594 C-123.31800545 10.25541834 -132.65899602 10.12760601 -142 10 C-141.97021844 11.04805408 -141.94043688 12.09610815 -141.90975285 13.17592144 C-141.02219042 45.12375123 -140.86194763 77.05406267 -140.89646223 109.01275264 C-140.90380083 116.00240362 -140.90512871 122.99205271 -140.90625793 129.981707 C-140.90841896 142.43531789 -140.91499668 154.88892204 -140.92456055 167.3425293 C-140.93381263 179.40307584 -140.94085473 191.46362052 -140.94506836 203.52416992 C-140.94533108 204.27403124 -140.94559381 205.02389255 -140.94586449 205.79647694 C-140.94717001 209.56023655 -140.94843361 213.32399617 -140.94967639 217.0877558 C-140.95995664 248.05850876 -140.97756883 279.02925333 -141 310 C-141.33 310 -141.66 310 -142 310 C-142.12870546 279.45284106 -142.25622481 248.90567741 -142.38218227 218.35850703 C-142.39719509 214.7178458 -142.41221759 211.07718461 -142.42724609 207.43652344 C-142.43023671 206.71200635 -142.43322732 205.98748927 -142.43630856 205.24101712 C-142.48418662 193.64744717 -142.53284164 182.05388062 -142.58180541 170.46031521 C-142.63236677 158.48418644 -142.68204321 146.50805422 -142.73096704 134.53191864 C-142.7583324 127.83888183 -142.78607946 121.14584717 -142.81480408 114.45281601 C-142.84206314 108.09820494 -142.86819093 101.74359006 -142.89359856 95.38897133 C-142.90288762 93.10892008 -142.91252388 90.8288702 -142.92262459 88.5488224 C-143.03955947 62.0324313 -143 35.51699381 -143 9 C-97.46 9 -51.92 9 -5 9 C-4.34 7.35 -3.68 5.7 -3 4 C-2.04175747 2.63634717 -1.05278825 1.29205831 0 0 Z " fill="#FFF5EF" transform="translate(569,283)"/>
<path d="M0 0 C0.33 0.66 0.66 1.32 1 2 C0.07421875 3.953125 0.07421875 3.953125 -1.3125 6.25 C-3.52383703 9.92500137 -4.58306496 12.74919487 -6 17 C52.41 17 110.82 17 171 17 C171.33 17.66 171.66 18.32 172 19 C111.61 19 51.22 19 -11 19 C-7.43924757 12.47195388 -3.99086579 6.2210555 0 0 Z " fill="#D76150" transform="translate(209,227)"/>
<path d="M0 0 C0.33 1.32 0.66 2.64 1 4 C0.01 4.33 -0.98 4.66 -2 5 C-3.21869929 7.50447516 -3.21869929 7.50447516 -4 10 C-34.41916034 10.89704189 -64.77311453 11.03184486 -95.20117188 10.60510254 C-101.45963133 10.51940722 -107.71824461 10.44575543 -113.97682953 10.36989594 C-123.31802866 10.25541806 -132.65892079 10.12641477 -142 10 C-142 27.49 -142 44.98 -142 63 C-142.33 63 -142.66 63 -143 63 C-143 45.18 -143 27.36 -143 9 C-97.46 9 -51.92 9 -5 9 C-4.34 7.35 -3.68 5.7 -3 4 C-2.04175747 2.63634717 -1.05278825 1.29205831 0 0 Z " fill="#FEF0E3" transform="translate(569,283)"/>
<path d="M0 0 C0.33 0 0.66 0 1 0 C1.7273617 3.26534637 2.12422042 6.28218826 2.12025452 9.6254425 C2.12162918 10.52421616 2.12300385 11.42298981 2.12442017 12.34899902 C2.12082489 13.32220093 2.11722961 14.29540283 2.11352539 15.2980957 C2.11367142 16.33270432 2.11381744 17.36731293 2.1139679 18.43327332 C2.11327214 21.84746407 2.10549544 25.26160004 2.09765625 28.67578125 C2.09579088 31.04518097 2.09436754 33.41458108 2.09336853 35.78398132 C2.08955276 42.01629707 2.07973047 48.24858947 2.06866455 54.480896 C2.05843024 60.84207849 2.05386658 67.20326477 2.04882812 73.56445312 C2.03810739 86.042979 2.02104222 98.52148756 2 111 C1.67 111 1.34 111 1 111 C-0.10177642 84.87090326 -0.10177642 84.87090326 0.02172852 72.28588867 C0.06249613 65.34575789 -0.25594607 58.43224451 -0.5625 51.5 C-1.00181234 41.25795078 -0.81428857 31.24193006 -0.11865234 21.0234375 C0.42137469 12.07391461 0.42137469 12.07391461 -0.5703125 3.2109375 C-0.71210938 2.48132813 -0.85390625 1.75171875 -1 1 C-0.67 0.67 -0.34 0.34 0 0 Z " fill="#DA7559" transform="translate(423,340)"/>
<path d="M0 0 C16.5 0 33 0 50 0 C50 16.17 50 32.34 50 49 C49.67 49 49.34 49 49 49 C48.67 33.82 48.34 18.64 48 3 C45.66447382 1.83223691 44.46422312 1.92563187 41.87329102 2.02587891 C41.02223282 2.05565826 40.17117462 2.08543762 39.29432678 2.11611938 C38.37348801 2.15256561 37.45264923 2.18901184 36.50390625 2.2265625 C34.56447235 2.28965622 32.62501844 2.35213732 30.68554688 2.4140625 C27.61939311 2.51737454 24.55363219 2.62534364 21.48803711 2.74414062 C18.53527689 2.85618362 15.58240901 2.9490538 12.62890625 3.0390625 C11.71009171 3.07955719 10.79127716 3.12005188 9.84461975 3.16177368 C8.56330421 3.19698624 8.56330421 3.19698624 7.25610352 3.23291016 C6.50490738 3.26035309 5.75371124 3.28779602 4.97975159 3.31607056 C3 3 3 3 0 0 Z " fill="#6B1D1A" transform="translate(330,246)"/>
<path d="M0 0 C0.99 0.33 1.98 0.66 3 1 C-4.81659676 13.90449066 -13.92322825 25.96496368 -23 38 C-23.33 36.68 -23.66 35.36 -24 34 C-23.34 34 -22.68 34 -22 34 C-21.71125 33.236875 -21.4225 32.47375 -21.125 31.6875 C-20 29 -20 29 -18 26 C-17.34 26 -16.68 26 -16 26 C-15.896875 25.401875 -15.79375 24.80375 -15.6875 24.1875 C-14.88864349 21.64568383 -13.89928455 20.82623514 -12 19 C-11.484375 18.113125 -10.96875 17.22625 -10.4375 16.3125 C-9.963125 15.549375 -9.48875 14.78625 -9 14 C-8.34 14 -7.68 14 -7 14 C-7 13.01 -7 12.02 -7 11 C-6.34 11 -5.68 11 -5 11 C-5 10.01 -5 9.02 -5 8 C-4.34 8 -3.68 8 -3 8 C-3 7.01 -3 6.02 -3 5 C-2.34 5 -1.68 5 -1 5 C-0.67 3.35 -0.34 1.7 0 0 Z " fill="#D5705B" transform="translate(618,208)"/>
<path d="M0 0 C0.66 0 1.32 0 2 0 C0.67607542 3.71616454 -0.95328518 6.46127449 -3.375 9.5625 C-8.00208852 15.75737493 -11.889725 22.33358219 -15.78662109 29.00610352 C-18.28405246 33.25684878 -20.76274665 37.25403541 -24 41 C-24 39.68 -24 38.36 -24 37 C-23.34 37 -22.68 37 -22 37 C-21.896875 36.29875 -21.79375 35.5975 -21.6875 34.875 C-20.90640997 31.60862353 -19.57941257 28.9528148 -18 26 C-17.34 26 -16.68 26 -16 26 C-15.67 24.68 -15.34 23.36 -15 22 C-14.34 22 -13.68 22 -13 22 C-12.87625 21.2575 -12.7525 20.515 -12.625 19.75 C-12.04513299 17.19858515 -11.26291261 15.2732427 -10 13 C-9.34 13 -8.68 13 -8 13 C-7.34 11.35 -6.68 9.7 -6 8 C-5.34 8 -4.68 8 -4 8 C-3.896875 7.4225 -3.79375 6.845 -3.6875 6.25 C-2.89103535 3.64338842 -1.80934723 2.0264689 0 0 Z " fill="#FDE5DC" transform="translate(222,204)"/>
<path d="M0 0 C0.99 0.33 1.98 0.66 3 1 C-2.59576633 9.45049137 -8.23872197 17.86859314 -13.9375 26.25 C-14.49268311 27.07153564 -15.04786621 27.89307129 -15.61987305 28.73950195 C-16.14621338 29.51124756 -16.67255371 30.28299316 -17.21484375 31.078125 C-17.68011475 31.76293945 -18.14538574 32.44775391 -18.62475586 33.15332031 C-19.95951238 34.94563317 -21.37912116 36.46596994 -23 38 C-23 36.68 -23 35.36 -23 34 C-22.34 34 -21.68 34 -21 34 C-20.67 32.68 -20.34 31.36 -20 30 C-19.34 30 -18.68 30 -18 30 C-18 29.01 -18 28.02 -18 27 C-17.34 27 -16.68 27 -16 27 C-15.7834375 26.071875 -15.7834375 26.071875 -15.5625 25.125 C-15 23 -15 23 -14 21 C-13.34 21 -12.68 21 -12 21 C-12 20.01 -12 19.02 -12 18 C-11.34 18 -10.68 18 -10 18 C-10 17.01 -10 16.02 -10 15 C-9.34 15 -8.68 15 -8 15 C-7.67 13.35 -7.34 11.7 -7 10 C-6.34 10 -5.68 10 -5 10 C-4.896875 9.21625 -4.79375 8.4325 -4.6875 7.625 C-4 5 -4 5 -1 3 C-0.67 2.01 -0.34 1.02 0 0 Z " fill="#DD9979" transform="translate(587,252)"/>
<path d="M0 0 C0.66 0.33 1.32 0.66 2 1 C-11.16810345 16.40948276 -11.16810345 16.40948276 -17 18 C-11.72898586 11.58930713 -5.90871848 5.81409488 0 0 Z " fill="#292F3B" transform="translate(97,94)"/>
<path d="M0 0 C0.33 0.66 0.66 1.32 1 2 C0.07421875 3.953125 0.07421875 3.953125 -1.3125 6.25 C-3.35403515 9.76030628 -4.89149024 13.06982902 -6 17 C-4.35 17 -2.7 17 -1 17 C-1 17.33 -1 17.66 -1 18 C-5.95 18.495 -5.95 18.495 -11 19 C-7.53520846 12.52286393 -3.96681941 6.18357143 0 0 Z " fill="#D37362" transform="translate(209,227)"/>
<path d="M0 0 C0.33 0.66 0.66 1.32 1 2 C0.00390625 4.1640625 0.00390625 4.1640625 -1.4375 6.625 C-1.91058594 7.44226563 -2.38367188 8.25953125 -2.87109375 9.1015625 C-3.24363281 9.72804687 -3.61617187 10.35453125 -4 11 C-4.66 11 -5.32 11 -6 11 C-6.66 12.98 -7.32 14.96 -8 17 C-8.66 17 -9.32 17 -10 17 C-8.51364884 12.78345644 -6.38750841 9.37521395 -3.875 5.6875 C-3.15054688 4.61886719 -2.42609375 3.55023438 -1.6796875 2.44921875 C-0.84824219 1.23685547 -0.84824219 1.23685547 0 0 Z " fill="#D47C6B" transform="translate(220,210)"/>
<path d="M0 0 C0.33 0.66 0.66 1.32 1 2 C-0.95310055 7.7451594 -4.45536599 13.22768299 -10 16 C-8.31029911 12.33601701 -6.12699789 9.09167428 -3.875 5.75 C-3.15054688 4.67234375 -2.42609375 3.5946875 -1.6796875 2.484375 C-0.84824219 1.25460938 -0.84824219 1.25460938 0 0 Z " fill="#FBD9D0" transform="translate(622,207)"/>
<path d="M0 0 C6.1112924 1.0388092 12.07704464 2.15730278 18 4 C18 4.33 18 4.66 18 5 C11.58518742 5.42765417 6.11404596 3.85743168 0 2 C0 1.34 0 0.68 0 0 Z " fill="#B8BDC2" transform="translate(223,469)"/>
<path d="M0 0 C1.258125 -0.020625 2.51625 -0.04125 3.8125 -0.0625 C4.52019531 -0.07410156 5.22789062 -0.08570313 5.95703125 -0.09765625 C8 0 8 0 11 1 C11 1.66 11 2.32 11 3 C9.741875 2.87625 8.48375 2.7525 7.1875 2.625 C6.12595703 2.52058594 6.12595703 2.52058594 5.04296875 2.4140625 C3 2 3 2 0 0 Z " fill="#3F444E" transform="translate(492,533)"/>
<path d="M0 0 C0.33 1.32 0.66 2.64 1 4 C1.66 4 2.32 4 3 4 C2.34 6.64 1.68 9.28 1 12 C0.67 12 0.34 12 0 12 C0 8.04 0 4.08 0 0 Z " fill="#E77B5B" transform="translate(382,285)"/>
<path d="M0 0 C0.33 0.99 0.66 1.98 1 3 C0.319375 3.61875 0.319375 3.61875 -0.375 4.25 C-2.05950374 6.06408095 -2.99265971 7.75285627 -4 10 C-4.66 10 -5.32 10 -6 10 C-4.6302836 6.00499382 -2.74277578 3.19990508 0 0 Z " fill="#FAE0D2" transform="translate(593,248)"/>
<path d="M0 0 C-1.65 1.65 -3.3 3.3 -5 5 C-5 3.68 -5 2.36 -5 1 C-5.66 0.67 -6.32 0.34 -7 0 C-3.98968256 -0.93423645 -3.13349732 -1.04449911 0 0 Z " fill="#E39276" transform="translate(595,247)"/>
<path d="M0 0 C0.33 0 0.66 0 1 0 C1 1.65 1 3.3 1 5 C-0.65 5.66 -2.3 6.32 -4 7 C-2.68 4.69 -1.36 2.38 0 0 Z " fill="#D67561" transform="translate(225,203)"/>
</svg>
